<svg width="20" height="19" viewBox="0 0 20 19" fill="none" xmlns="http://www.w3.org/2000/svg">
<path d="M10.0363 0.121094L10.9545 7.41537C10.9817 7.63135 11.2226 7.74738 11.4084 7.63398L17.6838 3.80394L12.5534 9.06972C12.4015 9.22563 12.461 9.48635 12.6655 9.56092L19.5726 12.0792L12.2569 11.3513C12.0402 11.3297 11.8735 11.5388 11.9427 11.7452L14.2803 18.7155L10.2882 12.5419C10.17 12.3592 9.90257 12.3592 9.78437 12.5419L5.79224 18.7155L8.12985 11.7452C8.19906 11.5388 8.03233 11.3297 7.81571 11.3513L0.5 12.0792L7.40708 9.56092C7.61159 9.48635 7.6711 9.22563 7.51919 9.06972L2.38878 3.80394L8.66416 7.63398C8.84997 7.74738 9.09091 7.63135 9.1181 7.41537L10.0363 0.121094Z" fill="url(#paint0_linear_48_160)"/>
<defs>
<linearGradient id="paint0_linear_48_160" x1="10.0363" y1="0.121094" x2="10.0363" y2="18.7155" gradientUnits="userSpaceOnUse">
<stop stop-color="#FFF6EA"/>
<stop offset="0.515" stop-color="#F5A131"/>
<stop offset="1" stop-color="#AD641B"/>
</linearGradient>
</defs>
</svg>
