<?xml version="1.0" standalone="no"?>
<!DOCTYPE svg PUBLIC "-//W3C//DTD SVG 20010904//EN"
 "http://www.w3.org/TR/2001/REC-SVG-20010904/DTD/svg10.dtd">
<svg version="1.0" xmlns="http://www.w3.org/2000/svg"
 width="89.000000pt" height="89.000000pt" viewBox="0 0 89.000000 89.000000"
 preserveAspectRatio="xMidYMid meet">
<metadata>
Created by potrace 1.14, written by Peter Selinger 2001-2017
</metadata>
<g transform="translate(0.000000,89.000000) scale(0.100000,-0.100000)"
fill="#000000" stroke="none">
<path d="M454 845 c13 -52 29 -196 28 -250 l-1 -60 19 30 c10 17 67 66 125
109 106 80 132 104 73 68 -122 -75 -173 -100 -179 -89 -4 7 -17 50 -29 97 -13
47 -27 92 -32 100 -7 11 -8 10 -4 -5z"/>
<path d="M399 754 c-13 -52 -26 -100 -30 -105 -3 -6 -52 17 -108 51 -57 33
-105 60 -109 60 -3 0 44 -37 104 -81 60 -45 112 -87 116 -93 4 -6 14 -20 22
-31 15 -19 16 -17 10 26 -3 26 -1 73 5 105 14 81 23 164 18 164 -2 0 -14 -43
-28 -96z"/>
<path d="M148 725 c6 -11 33 -58 61 -104 28 -47 49 -87 47 -89 -2 -2 -50 -16
-107 -32 -106 -30 -98 -32 51 -12 30 4 79 6 108 5 l54 -1 -32 23 c-18 13 -64
66 -103 117 -76 102 -95 124 -79 93z"/>
<path d="M659 631 c-41 -54 -87 -108 -104 -120 l-30 -22 37 5 c20 3 83 -1 140
-9 129 -18 159 -18 88 1 -108 28 -160 45 -160 49 0 3 10 22 23 43 42 66 89
152 84 152 -3 0 -38 -44 -78 -99z"/>
<path d="M45 442 c6 -5 50 -19 100 -32 50 -12 95 -25 102 -29 8 -4 -5 -35 -40
-97 -29 -50 -58 -99 -66 -108 -7 -9 -11 -16 -8 -16 3 0 44 51 91 113 47 61 97
120 113 129 28 16 27 16 -37 15 -36 -1 -83 2 -105 5 -22 4 -60 10 -85 13 -25
4 -52 8 -60 11 -9 3 -11 2 -5 -4z"/>
<path d="M380 338 c-13 -18 -69 -67 -125 -108 -56 -41 -101 -76 -100 -78 1 -1
48 25 105 59 67 39 105 57 110 50 3 -7 17 -57 30 -112 13 -55 28 -103 33 -106
6 -3 8 -2 5 3 -3 5 -9 30 -12 57 -3 26 -9 68 -13 95 -4 26 -7 75 -7 110 0 34
-1 62 -2 62 -1 0 -12 -15 -24 -32z"/>
</g>
</svg>
